<?xml version="1.0" encoding="utf-8"?>
<!-- Generator: Adobe Illustrator 19.2.1, SVG Export Plug-In . SVG Version: 6.00 Build 0)  -->
<svg version="1.1" id="Layer_1" xmlns="http://www.w3.org/2000/svg" xmlns:xlink="http://www.w3.org/1999/xlink" x="0px" y="0px"
	 viewBox="0 0 151 151" style="enable-background:new 0 0 151 151;" xml:space="preserve">
<style type="text/css">
	.st0{fill:#EDEFF2;stroke:#D8D8D8;stroke-miterlimit:10;}
</style>
<g>
	<circle id="XMLID_1_" class="st0" cx="123" cy="51.7" r="13.5"/>
	<path class="st0" d="M150,96.7H96l0,0c0-14.9,12.1-27,27-27l0,0C137.9,69.7,150,81.8,150,96.7L150,96.7z"/>
</g>
<g>
	<circle id="XMLID_2_" class="st0" cx="27.7" cy="51.7" r="13.5"/>
	<path class="st0" d="M54.7,96.7H0.7l0,0c0-14.9,12.1-27,27-27l0,0C42.6,69.7,54.7,81.8,54.7,96.7L54.7,96.7z"/>
</g>
<g>
	<circle id="XMLID_170_" class="st0" cx="75.9" cy="52.3" r="17.9"/>
	<path class="st0" d="M111.2,111.9H39.6l0,0c0-19.8,16-35.8,35.8-35.8l0,0C95.1,76.1,111.2,92.2,111.2,111.9L111.2,111.9z"/>
</g>
</svg>
