<?xml version="1.0" encoding="utf-8"?>
<!-- Generator: Adobe Illustrator 19.2.1, SVG Export Plug-In . SVG Version: 6.00 Build 0)  -->
<svg version="1.1" id="Layer_1" xmlns="http://www.w3.org/2000/svg" xmlns:xlink="http://www.w3.org/1999/xlink" x="0px" y="0px"
	 viewBox="0 0 145.3 150" style="enable-background:new 0 0 145.3 150;" xml:space="preserve">
<style type="text/css">
	.st0{fill:url(#SVGID_1_);}
	.st1{fill:url(#SVGID_2_);}
	.st2{fill:url(#SVGID_3_);}
</style>
<title>ramirez-logo</title>
<linearGradient id="SVGID_1_" gradientUnits="userSpaceOnUse" x1="103.2737" y1="-233.6558" x2="36.8896" y2="-118.6641" gradientTransform="matrix(1 0 0 1 0 244)">
	<stop  offset="0" style="stop-color:#1599FF"/>
	<stop  offset="1" style="stop-color:#3F48FF"/>
</linearGradient>
<path class="st0" d="M111.8,92.8c0.6-2.4-0.9-4.7-3.2-5.3c-2.4-0.6-4.7,0.9-5.3,3.2c-0.1,0.2-0.1,0.4-0.1,0.6
	c-0.8,4.6-2.1,8-4.7,11.5c-0.4-2.2-1-4.4-1.7-6.5c-0.2-0.5-0.3-0.9-0.5-1.4l-0.5-1.3c-0.3-0.9-0.5-1.6-0.7-2.1
	c-0.5-1.6,0.1-7.3,0.3-9c0.3-2.4-1.3-4.7-3.7-5c-2.4-0.3-4.7,1.3-5,3.7l0,0c-0.5,2.9-0.9,10-0.1,12.7c0.2,0.8,0.5,1.6,0.9,2.8
	l0.5,1.3c0.2,0.5,0.3,0.9,0.5,1.3c1.3,3.8,2,7.7,2.1,11.7c-0.9,0.8-1.9,1.6-3,2.5l-0.6,0.5c-3.6,2.8-6.9,5.8-10.1,9.1l-0.2-32.2
	c0.3-0.5,0.6-1,0.8-1.6c1.8-7.8,4.9-11.7,13.1-18.6l0.6-0.5c10.4-8.7,14.6-14.4,16.2-25.9c0.3-2.4-1.3-4.6-3.8-5
	c-2.4-0.3-4.6,1.3-5,3.8c-0.3,2.7-1,5.4-2.1,7.9c-0.3-1.2-0.8-2.4-1.3-3.6c-0.2-0.3-0.9-1.9-1-2.3c-1-2.4-1.2-3.9-0.8-6.8
	c0.3-2.4-1.3-4.6-3.8-5s-4.6,1.3-5,3.8l0,0c-0.6,4.6-0.1,7.7,1.4,11.5c0.2,0.5,0.9,2.1,1,2.4c1.3,3,2,6.2,2,9.5
	c-1.1,1-2.3,2-3.5,3.1l-0.6,0.5c-3,2.4-5.7,5-8.3,7.8l-0.2-31.4c0-0.2-0.1-0.5-0.1-0.7c0-0.1,0.1-0.2,0.1-0.3
	c0.2-3.3,1.2-5.8,3.2-9.5c0.4-0.7,2-3.5,2.3-4.1c3.9-6.8,5.8-12.5,6.5-20.9c0.2-2.4-1.6-4.6-4.1-4.7c-2.4-0.2-4.6,1.6-4.7,4.1
	c-0.3,4.5-1.4,9-3.2,13.1c-0.2-0.3-0.3-0.8-0.5-1.1l-0.5-0.9c-1.2-2.4-1.6-3.9-1.3-7.3c0.1-2.4-1.7-4.5-4.2-4.7
	c-2.4-0.1-4.5,1.7-4.7,4.2l0,0c-0.3,5.1,0.4,8,2.3,11.7l0.5,0.9c1.3,2.7,1.9,4.7,1.9,9.2c0,0.1,0,0.2,0.1,0.3
	c-1.3,2.9-2.1,6-2.3,9.1c0,0.3,0,0.7,0.1,1c-0.1,0.2-0.1,0.5-0.1,0.7l0.1,8.9c-2.3-2.3-4.7-4.4-7.3-6.4l-0.9-0.7
	c-0.6-3.4-0.5-6.8,0.3-10.1l0.1-0.3c1.1-5,1.2-8.3,0-14.1c-0.5-2.4-2.8-3.9-5.2-3.4s-3.9,2.8-3.4,5.2c0.9,4.5,0.9,6.6,0,10.5
	l-0.1,0.3c-0.3,1.3-0.5,2.4-0.6,3.6c-2.4-3.2-3.4-6.8-3.8-11.9c-0.2-2.4-2.3-4.3-4.7-4.1c-2.4,0.2-4.3,2.3-4.1,4.7
	c0.9,12.3,5.2,18.2,16,26.4l1,0.8c7.9,6.1,11.1,9.8,12.8,17.2c0,0.1,0.1,0.1,0.1,0.1l0.2,35.5c-2.7-2.7-5.7-5.3-8.7-7.6
	c-0.5-4.6-0.3-8,0.5-13.1c0.1-0.8,0.2-1.2,0.2-1.6c0.1-0.6,0.2-1.1,0.2-1.6c0.6-3.8,0.5-7.6-0.2-11.3c-0.5-2.4-2.8-3.9-5.2-3.5
	c-2.4,0.5-3.9,2.8-3.5,5.2c0.6,2.8,0.6,5.6,0.2,8.4c-0.1,0.4-0.1,0.9-0.2,1.4l-0.2,1.5c-0.4,2.5-0.6,4.7-0.8,6.9
	c-4.5-4.5-6.5-8.4-7.5-14.6c-0.2-2.4-2.4-4.2-4.9-3.9c-2.4,0.2-4.2,2.4-3.9,4.9c0,0.2,0.1,0.3,0.1,0.5c2,11.7,6.7,17.5,18.6,26.7
	l0.4,0.3c9.5,7.3,13,11.4,15,19.2l0.1,20.5c0,2.4,2.3,4.4,4.7,4.4c2.4,0,4.7-2,4.7-4.5v-0.2c1.7-7.8,5.5-12,15.2-19.9
	c0.3-0.2,0.1-0.2,0.4-0.5C105.2,110.4,109.9,104.5,111.8,92.8z"/>
<linearGradient id="SVGID_2_" gradientUnits="userSpaceOnUse" x1="132.7382" y1="-162.9723" x2="96.6385" y2="-100.4457" gradientTransform="matrix(1 0 0 1 0 244)">
	<stop  offset="0" style="stop-color:#1599FF"/>
	<stop  offset="1" style="stop-color:#3F48FF"/>
</linearGradient>
<path class="st1" d="M144.7,88.7c-1.2-2.1-3.9-2.9-6-1.7l0,0c-1.2,0.6-2.3,1.3-3.4,2.1l0,0l-0.3,0.2l-0.3,0.2
	c-1,0.8-2.3,1.7-3.3,2.5l-0.3,0.3l-0.4,0.3l0,0c-1.6,1.4-3.1,2.8-4.5,4.4c-0.5-1.6-1-3.2-1.7-4.8c-0.2-0.3-0.9-1.9-1-2.3
	c-1-2.4-1.2-3.9-0.8-6.8c0.3-2.4-1.3-4.6-3.8-5s-4.6,1.3-5,3.8c-0.6,4.6-0.1,7.8,1.4,11.5c0.2,0.5,0.9,2.1,1,2.4c1.4,3.3,2,6.1,2,11
	c0,0.3,0.1,0.6,0.1,0.9c-1.7,3.2-3.2,6.5-4.3,10l-0.2,0.5c-3.8,11.5-6.4,16.1-13.1,20.6c-2,1.4-2.5,4.1-1.2,6.1
	c1.4,2,4.1,2.5,6.1,1.2c8.7-5.9,12.2-12,16.5-25.2l0.2-0.5c2.7-8.3,7.6-15.6,14.3-21.2l0.7-0.6c1.7-1.4,3.6-2.7,5.6-3.8
	C145.1,93.5,145.9,90.7,144.7,88.7z"/>
<linearGradient id="SVGID_3_" gradientUnits="userSpaceOnUse" x1="41.0145" y1="-144.2104" x2="20.6309" y2="-108.9007" gradientTransform="matrix(1 0 0 1 0 244)">
	<stop  offset="0" style="stop-color:#1599FF"/>
	<stop  offset="1" style="stop-color:#3F48FF"/>
</linearGradient>
<path class="st2" d="M51.8,143.7c-1.3-2.7-2.9-5.3-4.8-7.6c0.1-0.5,0.2-1.1,0.1-1.6c-0.8-5.6-0.6-9,0.2-14.8
	c0.1-0.8,0.2-1.2,0.2-1.6c0.1-0.6,0.2-1.1,0.2-1.6c0.6-3.8,0.5-7.6-0.2-11.3c-0.5-2.4-2.8-3.9-5.2-3.5c-2.4,0.5-3.9,2.8-3.5,5.2
	c0.6,2.8,0.6,5.7,0.2,8.4c-0.1,0.4-0.1,0.9-0.2,1.4c-0.1,0.3-0.1,0.8-0.2,1.5c-0.6,3.2-0.9,6.5-0.9,9.8c-2.5-1.6-5.4-3.3-8.9-5.1
	l-0.5-0.3v-0.1c-0.9-4.7-0.9-7.6-0.1-11.2c0.1-0.3,0.5-2,0.6-2.5c0.8-4,0.7-7.1-0.8-11.5c-0.8-2.3-3.3-3.5-5.6-2.8
	c-2.3,0.8-3.5,3.3-2.8,5.6c1,2.8,1,4.4,0.5,6.9c-0.1,0.4-0.5,2.1-0.6,2.5c-0.5,2.4-0.8,5-0.7,7.5c-5.3-3.7-8.1-7.3-10.2-13.1
	c-0.8-2.3-3.3-3.5-5.6-2.7c-2.3,0.8-3.5,3.3-2.7,5.6c0,0.1,0.1,0.1,0.1,0.1c4.1,11.1,10,16,23.7,23.3l0.6,0.3
	c11.1,5.9,15.6,9.4,19.1,16.7c1,2.2,3.7,3.1,5.9,2C51.9,148.6,52.9,145.9,51.8,143.7L51.8,143.7z"/>
</svg>
