<?xml version="1.0" encoding="utf-8"?>
<!-- Generator: Adobe Illustrator 19.2.1, SVG Export Plug-In . SVG Version: 6.00 Build 0)  -->
<svg version="1.1" id="Layer_1" xmlns="http://www.w3.org/2000/svg" xmlns:xlink="http://www.w3.org/1999/xlink" x="0px" y="0px"
	 viewBox="0 0 60.7 38.1" style="enable-background:new 0 0 60.7 38.1;" xml:space="preserve">
<style type="text/css">
	.st0{fill:#EEEEEE;}
</style>
<path class="st0" d="M15.8,37.9C9.1,39,1.9,35.3,0.2,26c-1.8-13.3,8-24.4,22.5-26c0.5,0,0.6,0.4,0.6,0.4L24,4.5
	c0,0,0,0.5-0.4,0.6c-4.2,1.3-7.7,3.3-9,8.5c5.7,0.3,10.6,4.5,11.6,10.4C27,30.7,22.5,36.9,15.8,37.9z M50.3,37.9
	C43.6,39,36.4,35.3,34.6,26c-1.7-13.3,8-24.4,22.5-26c0.5,0,0.6,0.4,0.6,0.4l0.7,4.1c0,0,0,0.5-0.4,0.6c-4.2,1.3-7.7,3.3-9.1,8.5
	c5.7,0.3,10.6,4.5,11.6,10.4C61.6,30.7,57,36.9,50.3,37.9z"/>
</svg>
