<?xml version="1.0" encoding="utf-8"?>
<!-- Generator: Adobe Illustrator 19.2.1, SVG Export Plug-In . SVG Version: 6.00 Build 0)  -->
<svg version="1.1" id="Layer_1" xmlns="http://www.w3.org/2000/svg" xmlns:xlink="http://www.w3.org/1999/xlink" x="0px" y="0px"
	 viewBox="0 0 360.4 259.5" style="enable-background:new 0 0 360.4 259.5;" xml:space="preserve">
<style type="text/css">
	.st0{fill:url(#SVGID_1_);}
	.st1{fill:url(#SVGID_2_);}
	.st2{fill:url(#SVGID_3_);}
	.st3{fill:#212121;}
	.st4{fill:url(#SVGID_4_);}
	.st5{fill:url(#SVGID_5_);}
	.st6{fill:url(#SVGID_6_);}
</style>
<title>ramirez-logo</title>
<linearGradient id="SVGID_1_" gradientUnits="userSpaceOnUse" x1="234.6258" y1="242.1346" x2="119.9044" y2="43.4122" gradientTransform="matrix(1 0 0 -1 0 260)">
	<stop  offset="0" style="stop-color:#1599FF"/>
	<stop  offset="1" style="stop-color:#3F48FF"/>
</linearGradient>
<path class="st0" d="M249.6,160.6c1-4.1-1.5-8.2-5.6-9.2c-4.1-1-8.2,1.5-9.2,5.6c-0.1,0.4-0.1,0.7-0.2,1.1c-1.3,8-3.6,13.9-8.1,19.9
	c-0.7-3.8-1.7-7.6-3-11.3c-0.3-0.8-0.5-1.5-0.9-2.5l-0.8-2.2c-0.6-1.6-0.9-2.7-1.2-3.7c-0.8-2.8,0.2-12.7,0.6-15.5
	c0.6-4.2-2.2-8.1-6.4-8.7s-8.1,2.2-8.7,6.4l0,0c-0.8,5-1.6,17.2-0.2,22c0.4,1.4,0.9,2.8,1.6,4.8l0.8,2.3c0.3,0.9,0.6,1.6,0.8,2.3
	c2.3,6.5,3.5,13.3,3.6,20.2c-1.6,1.4-3.3,2.8-5.1,4.3l-1,0.8c-6.2,4.8-12,10-17.4,15.7l-0.3-55.7c0.6-0.8,1-1.8,1.3-2.8
	c3.1-13.5,8.5-20.3,22.6-32.1l1-0.8c18-15,25.2-24.8,28-44.8c0.6-4.2-2.3-8-6.5-8.6c-4.2-0.6-8,2.3-8.6,6.5
	c-0.6,4.7-1.8,9.3-3.7,13.7c-0.6-2.1-1.4-4.2-2.3-6.2c-0.3-0.6-1.5-3.3-1.8-4c-1.7-4.1-2.1-6.8-1.4-11.8c0.6-4.2-2.3-8-6.5-8.6
	c-4.2-0.6-8,2.3-8.6,6.5l0,0c-1.1,7.9-0.2,13.3,2.5,19.8c0.4,0.8,1.6,3.6,1.8,4.1c2.3,5.2,3.5,10.8,3.5,16.4
	c-1.9,1.7-3.9,3.4-6.1,5.3l-1,0.8c-5.1,4.1-9.9,8.6-14.3,13.5l-0.3-54.3c0-0.4-0.1-0.8-0.1-1.2c0-0.2,0.1-0.4,0.1-0.6
	c0.4-5.7,2-10.1,5.6-16.5c0.7-1.2,3.4-6,4-7c6.7-11.8,10.1-21.6,11.3-36.1c0.3-4.2-2.8-7.9-7-8.2c-4.2-0.3-7.9,2.8-8.2,7
	c-0.5,7.8-2.4,15.5-5.6,22.6c-0.3-0.6-0.6-1.3-0.9-1.9l-0.8-1.6c-2.1-4.2-2.7-6.7-2.3-12.7c0.2-4.2-3-7.8-7.2-8.1
	c-4.2-0.2-7.8,3-8.1,7.2l0,0c-0.5,8.8,0.7,13.9,3.9,20.3l0.8,1.6c2.3,4.7,3.2,8.2,3.2,15.9c0,0.2,0,0.4,0.1,0.6
	c-2.2,5-3.6,10.3-3.9,15.8c0,0.6,0,1.2,0.1,1.8c-0.1,0.4-0.1,0.8-0.1,1.2l0.1,15.4c-4-4-8.2-7.6-12.7-11l-1.6-1.2
	c-1.1-5.8-0.9-11.7,0.6-17.4l0.1-0.6c1.9-8.6,2.1-14.3,0-24.4c-0.9-4.1-4.9-6.8-9-5.9s-6.8,4.9-5.9,9c1.6,7.8,1.5,11.4,0,18.1
	l-0.1,0.6c-0.5,2.2-0.9,4.2-1.1,6.2c-4.1-5.6-5.9-11.7-6.6-20.5c-0.3-4.2-3.9-7.4-8.1-7.1c-4.2,0.3-7.4,3.9-7.1,8.1
	c1.5,21.2,8.9,31.4,27.7,45.7l1.8,1.4c13.7,10.5,19.1,17,22.1,29.8c0,0.1,0.1,0.2,0.1,0.2l0.3,61.3c-4.7-4.7-9.8-9.2-15.1-13.2
	c-0.9-8-0.6-13.8,0.8-22.7c0.2-1.3,0.3-2,0.4-2.7c0.2-1,0.3-1.9,0.4-2.8c1-6.5,0.9-13.2-0.4-19.6c-0.8-4.1-4.9-6.8-9-6s-6.8,4.9-6,9
	c1,4.8,1.1,9.7,0.4,14.5c-0.1,0.7-0.2,1.5-0.4,2.5l-0.4,2.6c-0.7,4.4-1.1,8.2-1.4,11.9c-7.8-7.7-11.2-14.5-13-25.2
	c-0.4-4.2-4.2-7.2-8.4-6.8c-4.2,0.4-7.2,4.2-6.8,8.4c0,0.3,0.1,0.6,0.2,0.9c3.4,20.3,11.6,30.3,32.2,46.2l0.7,0.6
	c16.4,12.7,22.5,19.7,26,33.1l0.2,35.4c0,4.2,4,7.6,8.2,7.6s8.1-3.4,8.1-7.7v-0.4c3-13.4,9.5-20.8,26.3-34.4
	c0.5-0.4,0.2-0.4,0.7-0.8C238.2,191,246.3,180.7,249.6,160.6z"/>
<linearGradient id="SVGID_2_" gradientUnits="userSpaceOnUse" x1="285.7715" y1="119.8397" x2="223.3578" y2="11.7361" gradientTransform="matrix(1 0 0 -1 0 260)">
	<stop  offset="0" style="stop-color:#1599FF"/>
	<stop  offset="1" style="stop-color:#3F48FF"/>
</linearGradient>
<path class="st1" d="M306.4,153.4c-2-3.7-6.7-5-10.3-3c0,0,0,0,0,0c-2,1.1-3.9,2.3-5.9,3.6l0,0l-0.6,0.4l-0.6,0.4
	c-1.8,1.3-3.9,2.9-5.7,4.3l-0.6,0.5l-0.7,0.6l0,0c-2.7,2.4-5.3,4.9-7.8,7.6c-0.8-2.8-1.7-5.6-2.9-8.3c-0.3-0.6-1.5-3.3-1.8-4
	c-1.7-4.1-2.1-6.8-1.4-11.8c0.6-4.2-2.3-8-6.5-8.6c-4.2-0.6-8,2.3-8.6,6.5c-1.1,7.9-0.2,13.4,2.5,19.8c0.4,0.8,1.6,3.6,1.8,4.1
	c2.4,5.7,3.5,10.6,3.5,19c0,0.5,0.1,1,0.2,1.6c-3,5.5-5.6,11.3-7.5,17.2l-0.3,0.9c-6.5,19.8-11,27.8-22.6,35.6
	c-3.5,2.4-4.4,7.1-2,10.6s7.1,4.4,10.6,2c15.1-10.2,21-20.8,28.5-43.5l0.3-0.9c4.7-14.3,13.2-27,24.7-36.7l1.2-1
	c3-2.5,6.3-4.7,9.7-6.6C307.2,161.7,308.5,157,306.4,153.4z"/>
<linearGradient id="SVGID_3_" gradientUnits="userSpaceOnUse" x1="127.3422" y1="87.3863" x2="92.1163" y2="26.366" gradientTransform="matrix(1 0 0 -1 0 260)">
	<stop  offset="0" style="stop-color:#1599FF"/>
	<stop  offset="1" style="stop-color:#3F48FF"/>
</linearGradient>
<path class="st2" d="M145.9,248.6c-2.2-4.7-5-9.1-8.3-13.1c0.2-0.9,0.3-1.9,0.1-2.8c-1.4-9.6-1.1-15.6,0.4-25.5
	c0.2-1.3,0.3-2,0.4-2.7c0.2-1,0.3-1.9,0.4-2.8c1-6.5,0.9-13.2-0.4-19.6c-0.8-4.1-4.9-6.8-9-6s-6.8,4.9-6,9c1,4.8,1.1,9.8,0.3,14.6
	c-0.1,0.7-0.2,1.5-0.4,2.5c-0.1,0.6-0.2,1.3-0.4,2.6c-1,5.6-1.5,11.3-1.5,17c-4.4-2.8-9.4-5.7-15.3-8.8l-0.9-0.5c0,0,0-0.1,0-0.1
	c-1.6-8.2-1.5-13.2-0.2-19.3c0.1-0.5,0.8-3.5,1-4.4c1.4-6.9,1.2-12.3-1.3-19.9c-1.4-4-5.7-6.1-9.7-4.8c-4,1.4-6.1,5.7-4.8,9.7
	c1.7,4.8,1.7,7.6,0.8,11.9c-0.2,0.7-0.8,3.6-1,4.3c-0.9,4.2-1.3,8.6-1.2,12.9c-9.2-6.4-14-12.6-17.7-22.6c-1.4-4-5.7-6.1-9.7-4.7
	c-4,1.4-6.1,5.7-4.7,9.7c0,0.1,0.1,0.2,0.1,0.2c7.1,19.1,17.2,27.7,41,40.3l1.1,0.6c19.2,10.2,26.9,16.3,33,28.8
	c1.8,3.8,6.4,5.4,10.2,3.5C146.1,256.9,147.7,252.3,145.9,248.6L145.9,248.6z"/>
<path class="st3" d="M28.6,189.6c2.8,0.1,5.6-0.4,8.3-1.6c2.7-1.3,5.1-3.1,7.2-5.1l6,6.1c-5.8,6.4-12.9,9.7-21.2,9.7
	c-8.3,0-15.2-2.7-20.6-8C2.7,185.3,0,178.5,0,170.3c-0.2-7.7,2.8-15.1,8.4-20.4c5.6-5.4,12.6-8.2,21.1-8.2c8.1-0.2,16,3.3,21.3,9.4
	l-5.9,6.4c-2.1-2.2-4.7-4-7.4-5.3c-2.6-1.1-5.4-1.6-8.2-1.5c-5.2-0.1-10.2,1.8-14,5.4c-3.8,3.6-5.8,8.6-5.6,13.8
	c-0.1,5.2,1.9,10.3,5.6,14C18.7,187.6,23.6,189.6,28.6,189.6z"/>
<path class="st3" d="M173.1,190.4c-11.6,10.8-29.6,10.8-41.1,0c-11.1-11.2-11.1-29.3,0-40.5c11.6-10.8,29.6-10.8,41.1,0
	C184.2,161.1,184.2,179.2,173.1,190.4z M166.3,156.1c-7.4-7.6-19.6-7.8-27.2-0.3c-0.1,0.1-0.2,0.2-0.3,0.3c-7.5,7.9-7.5,20.3,0,28.2
	c7.4,7.6,19.6,7.8,27.2,0.3c0.1-0.1,0.2-0.2,0.3-0.3C173.8,176.4,173.8,164,166.3,156.1L166.3,156.1z"/>
<linearGradient id="SVGID_4_" gradientUnits="userSpaceOnUse" x1="226.5585" y1="252.6751" x2="108.3784" y2="47.9751" gradientTransform="matrix(1 0 0 -1 0 260)">
	<stop  offset="0" style="stop-color:#1599FF"/>
	<stop  offset="1" style="stop-color:#3F48FF"/>
</linearGradient>
<path class="st4" d="M134.2,163.9c0.9-2.9,2.4-1.9,4.6-4.1c3.6-3.8,8.6-5.9,13.8-5.8c2,0,3.8-3.3,5.6-2.8c0.2-2.7,0.7-6.4,1.1-9.6
	c-2.1-0.4-4.4-1.5-6.7-1.5c-3.2,0-6.1,1.4-8.8,2.2c-0.4,2.8-0.8,6.3-0.9,8.9c-1.9-1.9-3.8-4-5.5-6.2c-2.1,1.2-4.7,2.2-6.5,4
	c-2,2-3.2,4.4-4.5,6.8C128.8,158.5,131.4,161.3,134.2,163.9z"/>
<path class="st3" d="M236.8,160.6c0,9.1-4,14.8-11.9,17.1l14.4,19.9h-11.8l-13.1-18.5h-12.2v18.5h-9.3v-54.9h20.4
	c8.4,0,14.4,1.4,18,4.2C235,149.8,236.8,154.3,236.8,160.6z M224.4,168.3c1.9-1.6,2.8-4.2,2.8-7.8s-1-6.1-2.9-7.4
	c-1.9-1.3-5.4-2-10.4-2h-11.8v19.6h11.5C219,170.8,222.5,170,224.4,168.3L224.4,168.3z"/>
<path class="st3" d="M326.1,197.6v-54.9h9.3v46.1h25v8.8L326.1,197.6L326.1,197.6z"/>
<path class="st3" d="M66.1,197.6v-54.9h9.3v23.8h27.2v-23.8h9.3v54.9h-9.3v-22.5H75.3v22.5H66.1z"/>
<path class="st3" d="M265.9,185.1l-5.5,12.5h-9.9l24.2-54.9h9.9l24.2,54.9h-9.9l-5.5-12.5H265.9z M289.6,176.6l-10-22.6l-10,22.6
	H289.6L289.6,176.6z"/>
<linearGradient id="SVGID_5_" gradientUnits="userSpaceOnUse" x1="299.2289" y1="113.2322" x2="233.6389" y2="-0.3779" gradientTransform="matrix(1 0 0 -1 0 260)">
	<stop  offset="0" style="stop-color:#1599FF"/>
	<stop  offset="1" style="stop-color:#3F48FF"/>
</linearGradient>
<path class="st5" d="M289,154.8c-1.8,1.3-3.9,2.9-5.7,4.3l-0.6,0.5l-1,0.9l6.8,14.4c1.2-1.2,2.9-2.6,4.1-3.7l1.2-1
	c0.7-0.6,1.9-1.5,2.6-2l-6.2-14.3l-0.6,0.4L289,154.8z"/>
<linearGradient id="SVGID_6_" gradientUnits="userSpaceOnUse" x1="91.7614" y1="109.5792" x2="55.0814" y2="46.0592" gradientTransform="matrix(1 0 0 -1 0 260)">
	<stop  offset="0" style="stop-color:#1599FF"/>
	<stop  offset="1" style="stop-color:#3F48FF"/>
</linearGradient>
<path class="st6" d="M75.8,198.3l-0.5-9.4c-3.4-2.7-3.2-5-4.1-8.5c-0.8-2.6-2.8-4.5-5.4-5.1v23L75.8,198.3L75.8,198.3z"/>
</svg>
