<?xml version="1.0" encoding="utf-8"?>
<!-- Generator: Adobe Illustrator 19.2.1, SVG Export Plug-In . SVG Version: 6.00 Build 0)  -->
<svg version="1.1" id="Layer_1" xmlns="http://www.w3.org/2000/svg" xmlns:xlink="http://www.w3.org/1999/xlink" x="0px" y="0px"
	 viewBox="0 0 151 151" style="enable-background:new 0 0 151 151;" xml:space="preserve">
<style type="text/css">
	.st0{fill:#EDEFF2;stroke:#D8D8D8;stroke-miterlimit:10;}
</style>
<g>
	<path class="st0" d="M87.2,117.6H65c-1.5,0-3.2-1.5-3.2-3.2v-5.7c0-1.5,1.5-3.2,3.2-3.2h22.2c1.5,0,3.2,1.5,3.2,3.2v5.7
		C90.3,116,89,117.6,87.2,117.6z"/>
	<path class="st0" d="M88.2,121.5H64.4c-0.3,0-0.7-0.3-0.7-0.7v-2.2c0-0.3,0.3-0.7,0.7-0.7h23.7c0.3,0,0.7,0.3,0.7,0.7v2.2
		C88.8,121.1,88.5,121.5,88.2,121.5z"/>
	<path class="st0" d="M86.2,125.2H66c-0.3,0-0.7-0.3-0.7-0.7v-2.2c0-0.3,0.3-0.7,0.7-0.7h20.2c0.3,0,0.7,0.3,0.7,0.7v2.2
		C87.2,124.9,86.8,125.2,86.2,125.2z"/>
	<path class="st0" d="M67.6,125.8c0,3.8,3.8,7,8.5,7s8.5-3.2,8.5-7"/>
</g>
<path class="st0" d="M107.6,46.8c0-16.4-14-29.5-31.6-29.5S44.6,31,44.6,47.3c0,7.4,2.5,14.3,7.4,19.7l0,0c0,0,11.2,11.8,11.2,24.5
	c0,0-1.2,10.5,13.6,9.9c14,0.6,14-10.5,14-10.5c-0.3-10.9,7.4-22,9.3-24.8C104.5,61.1,107.6,54.1,107.6,46.8z"/>
</svg>
