<svg id="Layer_1" data-name="Layer 1" xmlns="http://www.w3.org/2000/svg" xmlns:xlink="http://www.w3.org/1999/xlink" viewBox="0 0 360.4 259.51"><defs><style>.cls-1{fill:url(#linear-gradient);}.cls-2{fill:url(#linear-gradient-2);}.cls-3{fill:url(#linear-gradient-3);}.cls-4{fill:#f2f2f2;}.cls-5{fill:url(#linear-gradient-4);}.cls-6{fill:url(#linear-gradient-5);}.cls-7{fill:url(#linear-gradient-6);}</style><linearGradient id="linear-gradient" x1="234.61" y1="17.91" x2="119.89" y2="216.63" gradientUnits="userSpaceOnUse"><stop offset="0" stop-color="#1599ff"/><stop offset="1" stop-color="#3f48ff"/></linearGradient><linearGradient id="linear-gradient-2" x1="285.77" y1="140.18" x2="223.37" y2="248.26" xlink:href="#linear-gradient"/><linearGradient id="linear-gradient-3" x1="127.37" y1="172.63" x2="92.15" y2="233.64" xlink:href="#linear-gradient"/><linearGradient id="linear-gradient-4" x1="226.55" y1="7.32" x2="108.37" y2="212.02" xlink:href="#linear-gradient"/><linearGradient id="linear-gradient-5" x1="299.25" y1="146.78" x2="233.66" y2="260.39" xlink:href="#linear-gradient"/><linearGradient id="linear-gradient-6" x1="91.76" y1="150.42" x2="55.08" y2="213.94" xlink:href="#linear-gradient"/></defs><title>ramirez-logo</title><path class="cls-1" d="M249.55,160.57a7.62,7.62,0,1,0-15-2.45c-1.3,8-3.65,13.94-8.14,19.88a81.54,81.54,0,0,0-3-11.32c-0.26-.77-0.53-1.53-0.88-2.49l-0.8-2.22c-0.57-1.61-.94-2.71-1.23-3.74-0.79-2.8.16-12.74,0.59-15.5A7.62,7.62,0,1,0,206,140.38c-0.79,5-1.56,17.17-.2,22,0.4,1.44.87,2.84,1.55,4.75l0.81,2.26c0.32,0.89.57,1.58,0.8,2.27a64,64,0,0,1,3.63,20.25c-1.61,1.36-3.3,2.77-5.15,4.26l-1,.8A163.15,163.15,0,0,0,189,212.66l-0.28-55.71a7.6,7.6,0,0,0,1.26-2.76c3.14-13.49,8.48-20.28,22.62-32.08l1-.85c18-15,25.2-24.81,28-44.8a7.62,7.62,0,1,0-15.09-2.15A48.59,48.59,0,0,1,222.83,88a61,61,0,0,0-2.28-6.22c-0.27-.62-1.47-3.34-1.75-4-1.7-4.06-2.14-6.76-1.44-11.82a7.62,7.62,0,0,0-15.1-2.08c-1.09,7.92-.22,13.35,2.49,19.8,0.35,0.84,1.58,3.62,1.79,4.11a40.83,40.83,0,0,1,3.46,16.4c-1.85,1.69-3.87,3.44-6.13,5.33l-1,.85a129.15,129.15,0,0,0-14.27,13.46l-0.27-54.35a7.56,7.56,0,0,0-.12-1.15c0-.19.09-0.38,0.1-0.58,0.42-5.7,2-10.09,5.57-16.46,0.7-1.25,3.43-6,4-6.95,6.66-11.75,10.13-21.63,11.3-36.13A7.62,7.62,0,1,0,193.94,7a63.18,63.18,0,0,1-5.61,22.58c-0.28-.63-0.57-1.26-0.88-1.9l-0.79-1.59c-2.09-4.22-2.66-6.67-2.32-12.68a7.62,7.62,0,0,0-15.22-.88c-0.51,8.81.67,13.85,3.87,20.33l0.78,1.57c2.33,4.72,3.21,8.25,3.18,15.88,0,0.2,0,.39.06,0.59a46.13,46.13,0,0,0-3.95,15.75,7.58,7.58,0,0,0,.09,1.76,7.56,7.56,0,0,0-.11,1.17L173.12,85a121.09,121.09,0,0,0-12.73-11l-1.56-1.19a39.37,39.37,0,0,1,.56-17.39l0.14-.62c1.87-8.58,2.1-14.3,0-24.39a7.62,7.62,0,0,0-14.93,3.08c1.61,7.8,1.47,11.43,0,18.06l-0.13.61c-0.49,2.23-.87,4.25-1.14,6.19-4.12-5.64-5.93-11.66-6.55-20.46a7.62,7.62,0,0,0-15.21,1.07c1.5,21.24,8.94,31.41,27.68,45.74l1.84,1.41c13.68,10.47,19.09,17,22.07,29.85,0,0.08.06,0.15,0.08,0.23l0.3,61.26a143.45,143.45,0,0,0-15.09-13.21c-0.94-8-.6-13.82.79-22.7,0.21-1.33.32-2,.42-2.67,0.16-1,.29-1.9.4-2.75a55.61,55.61,0,0,0-.43-19.64,7.62,7.62,0,1,0-15,3A40.74,40.74,0,0,1,145,134c-0.1.74-.21,1.53-0.36,2.47l-0.41,2.63c-0.69,4.4-1.15,8.22-1.36,11.91-7.76-7.7-11.19-14.54-13-25.22a7.62,7.62,0,1,0-15,2.53c3.41,20.31,11.6,30.31,32.17,46.21l0.71,0.55c16.44,12.7,22.51,19.66,26,33.12l0.18,35.43c0,4.21,4,7.61,8.17,7.59s8.09-3.45,8.09-7.66v-0.37c3-13.37,9.49-20.81,26.32-34.42,0.5-.4.24-0.4,0.74-0.8C238.21,191,246.27,180.68,249.55,160.57Z" transform="translate(0 0)"/><path class="cls-2" d="M306.44,153.37a7.62,7.62,0,0,0-10.37-3c-2,1.1-3.92,2.34-5.85,3.63l0,0-0.56.39-0.6.43c-1.84,1.3-3.89,2.85-5.7,4.32l-0.64.53-0.74.61,0,0a92.21,92.21,0,0,0-7.78,7.57,58,58,0,0,0-2.89-8.33c-0.27-.62-1.47-3.34-1.75-4-1.7-4.06-2.14-6.76-1.44-11.82a7.62,7.62,0,1,0-15.1-2.08c-1.09,7.92-.22,13.35,2.49,19.8,0.35,0.84,1.58,3.62,1.79,4.11,2.44,5.71,3.52,10.57,3.49,19a7.65,7.65,0,0,0,.16,1.56,98.64,98.64,0,0,0-7.52,17.22l-0.28.85c-6.48,19.76-11,27.81-22.55,35.64a7.62,7.62,0,1,0,8.56,12.62c15.09-10.23,21-20.78,28.47-43.5l0.28-.85a81.58,81.58,0,0,1,24.71-36.74l1.2-1a68.5,68.5,0,0,1,9.66-6.61A7.62,7.62,0,0,0,306.44,153.37Z" transform="translate(0 0)"/><path class="cls-3" d="M145.85,248.55a64.1,64.1,0,0,0-8.26-13.11,7.57,7.57,0,0,0,.13-2.78c-1.37-9.63-1.11-15.63.43-25.52,0.21-1.33.32-2,.42-2.67,0.16-1,.29-1.9.4-2.75a55.61,55.61,0,0,0-.43-19.64,7.62,7.62,0,1,0-15,3,40.74,40.74,0,0,1,.27,14.62c-0.1.74-.21,1.53-0.36,2.47-0.09.6-.2,1.29-0.41,2.63a103.78,103.78,0,0,0-1.49,17c-4.36-2.83-9.39-5.69-15.33-8.84l-0.88-.46s0-.05,0-0.08c-1.63-8.25-1.51-13.22-.2-19.3,0.11-.53.79-3.49,1-4.38,1.43-6.86,1.24-12.34-1.34-19.91a7.62,7.62,0,0,0-14.43,4.92c1.65,4.83,1.74,7.57.85,11.88-0.15.72-.81,3.62-1,4.28A54.83,54.83,0,0,0,89,202.79c-9.25-6.43-14-12.64-17.71-22.61A7.62,7.62,0,1,0,57,185.47c7.06,19.12,17.21,27.7,41,40.33l1.13,0.6c19.22,10.18,26.9,16.27,33,28.82A7.62,7.62,0,1,0,145.85,248.55Z" transform="translate(0 0)"/><path class="cls-4" d="M28.58,189.57A19.38,19.38,0,0,0,36.83,188a28.33,28.33,0,0,0,7.22-5.14l6,6.13q-8.72,9.65-21.16,9.66t-20.65-8Q0,182.58,0,170.34a27.36,27.36,0,0,1,8.36-20.42q8.36-8.17,21.12-8.17a27.62,27.62,0,0,1,21.32,9.42l-5.89,6.44a25.65,25.65,0,0,0-7.42-5.26,20.74,20.74,0,0,0-8.21-1.5,19.51,19.51,0,0,0-14,5.38A18.14,18.14,0,0,0,9.66,170a19,19,0,0,0,5.61,14A18.2,18.2,0,0,0,28.58,189.57Z" transform="translate(0 0)"/><path class="cls-4" d="M173.11,190.43a30.09,30.09,0,0,1-41.14,0,28.81,28.81,0,0,1,0-40.52,30.09,30.09,0,0,1,41.14,0A28.81,28.81,0,0,1,173.11,190.43Zm-6.79-34.36a19.26,19.26,0,0,0-27.57,0,20.52,20.52,0,0,0,0,28.19,19.26,19.26,0,0,0,27.57,0A20.52,20.52,0,0,0,166.32,156.08Z" transform="translate(0 0)"/><path class="cls-5" d="M134.16,163.86c0.9-2.87,2.38-1.85,4.59-4.14a18.43,18.43,0,0,1,13.78-5.81c2,0,3.83-3.28,5.6-2.76,0.18-2.67.66-6.44,1.15-9.63-2.1-.43-4.35-1.52-6.66-1.52-3.16,0-6.07,1.4-8.84,2.21-0.38,2.84-.78,6.31-0.93,8.87a67,67,0,0,1-5.46-6.18c-2.11,1.2-4.68,2.19-6.51,4-2,2-3.22,4.42-4.5,6.75A96.37,96.37,0,0,0,134.16,163.86Z" transform="translate(0 0)"/><path class="cls-4" d="M236.76,160.56q0,13.58-11.86,17.12l14.37,19.94H227.5l-13.11-18.46H202.21v18.46h-9.27V142.73h20.42q12.56,0,18,4.24T236.76,160.56Zm-12.33,7.78q2.83-2.43,2.83-7.82t-2.91-7.38q-2.9-2-10.37-2H202.21v19.63h11.54Q221.6,170.77,224.43,168.33Z" transform="translate(0 0)"/><path class="cls-4" d="M326.09,197.62V142.73h9.27v46.09H360.4v8.79H326.09Z" transform="translate(0 0)"/><path class="cls-4" d="M66.08,197.62V142.73h9.27v23.79H102.6V142.73h9.27v54.89H102.6V175.16H75.35v22.46H66.08Z" transform="translate(0 0)"/><path class="cls-4" d="M265.93,185.13l-5.5,12.49h-9.89l24.19-54.89h9.89l24.19,54.89h-9.9l-5.5-12.49H265.93Zm23.72-8.56-10-22.62-10,22.62h19.94Z" transform="translate(0 0)"/><path class="cls-6" d="M289,154.82c-1.84,1.3-3.89,2.85-5.7,4.32l-0.64.53-1,.88L288.48,175c1.25-1.2,2.87-2.63,4.14-3.7l1.2-1c0.74-.6,1.85-1.46,2.59-2L290.22,154l-0.58.36Z" transform="translate(0 0)"/><path class="cls-7" d="M75.81,198.26l-0.47-9.42c-3.36-2.73-3.21-5-4.14-8.46a7.48,7.48,0,0,0-5.45-5.13v23H75.81Z" transform="translate(0 0)"/></svg>